<?xml version="1.0" encoding="UTF-8" standalone="no"?>
<!-- Created with Inkscape (http://www.inkscape.org/) -->

<svg
   xmlns:dc="http://purl.org/dc/elements/1.1/"
   xmlns:cc="http://creativecommons.org/ns#"
   xmlns:rdf="http://www.w3.org/1999/02/22-rdf-syntax-ns#"
   xmlns:svg="http://www.w3.org/2000/svg"
   xmlns="http://www.w3.org/2000/svg"
   xmlns:sodipodi="http://sodipodi.sourceforge.net/DTD/sodipodi-0.dtd"
   xmlns:inkscape="http://www.inkscape.org/namespaces/inkscape"
   id="svg2"
   version="1.1"
   inkscape:version="0.91 r"
   xml:space="preserve"
   width="1789.3177"
   height="295.31839"
   viewBox="0 0 1789.3177 295.31839"
   sodipodi:docname="cryptobuyer-logo-white.svg"><metadata
     id="metadata8"><rdf:RDF><cc:Work
         rdf:about=""><dc:format>image/svg+xml</dc:format><dc:type
           rdf:resource="http://purl.org/dc/dcmitype/StillImage" /><dc:title></dc:title></cc:Work></rdf:RDF></metadata><defs
     id="defs6"><clipPath
       clipPathUnits="userSpaceOnUse"
       id="clipPath16"><path
         d="m 0,1500 1500,0 L 1500,0 0,0 0,1500 Z"
         id="path18"
         inkscape:connector-curvature="0" /></clipPath></defs><sodipodi:namedview
     pagecolor="#ffffff"
     bordercolor="#666666"
     borderopacity="1"
     objecttolerance="10"
     gridtolerance="10"
     guidetolerance="10"
     inkscape:pageopacity="0"
     inkscape:pageshadow="2"
     inkscape:window-width="1366"
     inkscape:window-height="716"
     id="namedview4"
     showgrid="false"
     fit-margin-top="0"
     fit-margin-left="0"
     fit-margin-right="0"
     fit-margin-bottom="0"
     inkscape:zoom="0.35600469"
     inkscape:cx="899.2865"
     inkscape:cy="535.99595"
     inkscape:window-x="0"
     inkscape:window-y="25"
     inkscape:window-maximized="1"
     inkscape:current-layer="g10" /><g
     id="g10"
     inkscape:groupmode="layer"
     inkscape:label="LOGO CRYPTOBUYER"
     transform="matrix(1.25,0,0,-1.25,-42.840875,1085.7091)"><g
       id="g4279"><g
         style="fill:#ffffff"
         transform="translate(147.9497,714.5625)"
         id="g24"><path
           inkscape:connector-curvature="0"
           id="path26"
           style="fill:#ffffff;fill-opacity:1;fill-rule:nonzero;stroke:none"
           d="m 0,0 c -0.147,-0.18 -15.049,-17.867 -43.305,-17.867 -32.144,0 -55.475,23.033 -55.475,54.769 0,32.031 23.331,55.279 55.475,55.279 24.559,0 39.486,-15.728 39.634,-15.887 L -2.417,74.949 6.484,86.13 5.61,87.125 c -0.673,0.765 -16.84,18.724 -48.915,18.724 -40.118,0 -70.372,-29.641 -70.372,-68.947 0,-39.656 29.595,-68.437 70.372,-68.437 33.4,0 50.861,19.687 51.588,20.527 L 9.066,-10.105 1.368,1.66 0,0 Z" /></g><g
         style="fill:#ffffff"
         transform="translate(245.4204,818.3628)"
         id="g28"><path
           inkscape:connector-curvature="0"
           id="path30"
           style="fill:#ffffff;fill-opacity:1;fill-rule:nonzero;stroke:none"
           d="m 0,0 c -16.904,0 -31.85,-10.596 -40.559,-28.207 0.01,0.414 0.016,0.838 0.016,1.266 l 0,25.916 -14.365,0 0,-131.236 14.365,0 0,56.91 c 0,9.431 1.355,18.56 3.928,26.425 3.232,10.448 13.428,34.746 38.215,34.746 2.766,0 5.852,-0.488 5.882,-0.493 l 1.833,-0.291 0,13.903 -1.264,0.26 C 7.892,-0.768 4.113,0 0,0" /></g><g
         style="fill:#ffffff"
         transform="translate(327.4204,714.1836)"
         id="g32"><path
           inkscape:connector-curvature="0"
           id="path34"
           style="fill:#ffffff;fill-opacity:1;fill-rule:nonzero;stroke:none"
           d="m 0,0 c -1.416,-3.264 -2.599,-6.426 -3.41,-8.713 -0.883,2.293 -2.147,5.479 -3.548,8.709 l -44.406,103.158 -15.451,0 55.872,-128.871 -9.315,-20.633 c -6.592,-14.877 -14.665,-22.111 -24.682,-22.111 -8.365,0 -15.456,5.731 -15.526,5.789 l -1.475,1.209 -6.619,-12.049 1.023,-0.832 c 0.377,-0.306 9.387,-7.527 22.597,-7.527 15.508,0 28.378,9.027 35.313,24.773 l 69.482,160.252 -15.452,0 L 0,0 Z" /></g><g
         style="fill:#ffffff"
         transform="translate(469.916,696.6953)"
         id="g36"><path
           inkscape:connector-curvature="0"
           id="path38"
           style="fill:#ffffff;fill-opacity:1;fill-rule:nonzero;stroke:none"
           d="m 0,0 c -29.418,0 -44.81,27.553 -44.81,54.769 0,40.758 23.698,55.279 45.876,55.279 26.802,0 44.809,-22.111 44.809,-55.023 C 45.875,22.113 27.439,0 0,0 m 1.599,123.716 c -26.988,0 -40.626,-15.058 -46.242,-23.734 0.06,1.139 0.1,2.385 0.1,3.71 l 0,16.95 -14.365,0 0,-182.462 14.365,0 0,67.41 c 0,1.676 -0.066,3.223 -0.165,4.607 5.802,-8.746 19.482,-23.865 44.708,-23.865 17.266,0 32.775,6.68 43.67,18.809 11.189,12.455 17.103,29.705 17.103,49.884 0,41.728 -23.227,68.691 -59.174,68.691" /></g><g
         style="fill:#ffffff"
         transform="translate(619.9614,698.7109)"
         id="g40"><path
           inkscape:connector-curvature="0"
           id="path42"
           style="fill:#ffffff;fill-opacity:1;fill-rule:nonzero;stroke:none"
           d="m 0,0 c -0.023,-0.006 -2.309,-0.479 -5.804,-0.479 -11.258,0 -30.145,4.754 -30.145,36.583 l 0,68.855 34.927,0 0,12.9 -34.927,0 0,36.372 -14.365,0 0,-36.372 -17.597,0 0,-12.9 17.597,0 0,-69.623 c 0,-19.012 5.6,-32.777 16.642,-40.912 9.038,-6.66 19.854,-8.057 27.335,-8.057 4.103,0 6.849,0.518 6.964,0.541 L 1.911,-12.846 1.909,0.402 0,0 Z" /></g><g
         style="fill:#ffffff"
         transform="translate(873.3125,696.6953)"
         id="g48"><path
           inkscape:connector-curvature="0"
           id="path50"
           style="fill:#ffffff;fill-opacity:1;fill-rule:nonzero;stroke:none"
           d="m 0,0 c -30.787,0 -44.81,28.391 -44.81,54.769 0,40.758 23.699,55.279 45.876,55.279 26.802,0 44.81,-22.111 44.81,-55.023 C 45.876,22.113 27.439,0 0,0 m 1.6,123.716 c -26.595,0 -40.442,-14.961 -46.274,-23.733 0.079,1.151 0.129,2.398 0.129,3.709 l 0,68.18 -14.362,0 0,-182.466 14.362,0 0,16.184 c 0,1.73 -0.068,3.324 -0.172,4.738 5.835,-8.713 19.58,-23.996 44.183,-23.996 17.752,0 33.013,6.502 44.134,18.805 11.235,12.425 17.173,29.677 17.173,49.888 0,41.728 -23.227,68.691 -59.173,68.691" /></g><g
         style="fill:#ffffff"
         transform="translate(1065.5625,753.2573)"
         id="g52"><path
           inkscape:connector-curvature="0"
           id="path54"
           style="fill:#ffffff;fill-opacity:1;fill-rule:nonzero;stroke:none"
           d="m 0,0 c 0,-27.804 -19.852,-56.562 -53.074,-56.562 -28.802,0 -31.212,20.604 -31.212,41.705 l 0,78.937 -14.364,0 0,-82.779 c 0,-35.638 14.055,-51.531 45.576,-51.531 28.654,0 45.757,17.953 53.157,30.137 C 0.031,-41.023 0,-42.007 0,-43.033 l 0,-24.123 14.364,0 0,131.236 L 0,64.08 0,0 Z" /></g><g
         style="fill:#ffffff"
         transform="translate(1170.4746,714.1836)"
         id="g56"><path
           inkscape:connector-curvature="0"
           id="path58"
           style="fill:#ffffff;fill-opacity:1;fill-rule:nonzero;stroke:none"
           d="m 0,0 c -1.416,-3.264 -2.599,-6.426 -3.41,-8.713 -0.883,2.293 -2.148,5.479 -3.549,8.709 l -44.405,103.158 -15.452,0 55.872,-128.871 -9.315,-20.633 c -6.591,-14.877 -14.663,-22.111 -24.68,-22.111 -8.367,0 -15.457,5.731 -15.528,5.789 l -1.474,1.209 -6.618,-12.049 1.023,-0.832 c 0.376,-0.306 9.386,-7.527 22.597,-7.527 15.506,0 28.376,9.027 35.312,24.773 l 69.481,160.252 -15.451,0 L 0,0 Z" /></g><g
         style="fill:#ffffff"
         transform="translate(1260.7295,765.0854)"
         id="g60"><path
           inkscape:connector-curvature="0"
           id="path62"
           style="fill:#ffffff;fill-opacity:1;fill-rule:nonzero;stroke:none"
           d="M 0,0 C 4.877,25.685 24.362,42.172 50.107,42.172 68.862,42.172 89.355,31.052 91.365,0 L 0,0 Z M 50.374,55.326 C 32.568,55.326 16.128,48.974 4.086,37.438 -9.054,24.85 -15.998,7.193 -15.998,-13.621 c 0,-39.656 29.595,-68.437 70.372,-68.437 29.09,0 47.767,17.367 48.546,18.107 l 0.982,0.93 -7.986,11.674 -1.35,-1.385 C 94.414,-52.888 79.019,-68.39 54.374,-68.39 c -32.145,0 -54.748,22.631 -55.457,55.236 l 106.706,0 0.18,1.379 c 0.021,0.171 0.546,4.233 0.546,7.118 0,29.857 -17.308,59.983 -55.975,59.983" /></g><g
         style="fill:#ffffff"
         transform="translate(1464.4629,817.562)"
         id="g64"><path
           inkscape:connector-curvature="0"
           id="path66"
           style="fill:#ffffff;fill-opacity:1;fill-rule:nonzero;stroke:none"
           d="m 0,0 c -0.159,0.033 -3.938,0.801 -8.052,0.801 -16.904,0 -31.849,-10.594 -40.558,-28.207 0.009,0.414 0.014,0.838 0.014,1.265 l 0,25.916 -14.364,0 0,-131.235 14.364,0 0,56.91 c 0,9.432 1.357,18.56 3.929,26.425 3.233,10.448 13.429,34.746 38.215,34.746 2.767,0 5.852,-0.488 5.884,-0.493 l 1.832,-0.291 0,13.903 L 0,0 Z" /></g><g
         id="g4267"><g
           id="g20"
           transform="translate(797.6035,751.1831)"><path
             d="m 0,0 c 0,-48.875 -39.62,-88.496 -88.495,-88.496 -48.875,0 -88.496,39.621 -88.496,88.496 0,48.874 39.621,88.495 88.496,88.495 C -39.62,88.495 0,48.874 0,0"
             style="fill:#2abcc6;fill-opacity:1;fill-rule:nonzero;stroke:none"
             id="path22"
             inkscape:connector-curvature="0" /></g><g
           id="g44"
           transform="translate(709.874,696.6953)"><path
             d="m 0,0 c -31.257,0 -55.741,24.508 -55.741,55.794 0,30.422 24.484,54.254 55.741,54.254 31.256,0 55.741,-23.832 55.741,-54.254 C 55.741,24.508 31.256,0 0,0 m 0,123.716 c -18.938,0 -36.667,-6.955 -49.918,-19.583 C -63.28,91.4 -70.639,74.232 -70.639,55.794 c 0,-18.812 7.354,-36.351 20.707,-49.384 13.265,-12.947 30.997,-20.078 49.932,-20.078 18.934,0 36.667,7.131 49.931,20.078 13.352,13.033 20.707,30.572 20.707,49.384 0,18.438 -7.36,35.606 -20.721,48.339 C 36.665,116.761 18.938,123.716 0,123.716"
             style="fill:#ffde00;fill-opacity:1;fill-rule:nonzero;stroke:none"
             id="path46"
             inkscape:connector-curvature="0" /></g><g
           id="g68"
           transform="translate(701.7432,787.4927)"><path
             d="m 0,0 0,-14.731 14.73,0 0,14.73 L 0,0 Z"
             style="fill:#ffffff;fill-opacity:1;fill-rule:nonzero;stroke:none"
             id="path70"
             inkscape:connector-curvature="0" /></g><g
           id="g72"
           transform="translate(701.7432,768.23)"><path
             d="M 0,0 0,-14.731 14.73,-14.732 14.73,0 0,0 Z"
             style="fill:#ffffff;fill-opacity:1;fill-rule:nonzero;stroke:none"
             id="path74"
             inkscape:connector-curvature="0" /></g><path
           d="m 701.743,734.236 14.73,0 0,14.73 -14.73,0 0,-14.73 z"
           style="fill:#ffffff;fill-opacity:1;fill-rule:nonzero;stroke:none"
           id="path76"
           inkscape:connector-curvature="0" /><path
           d="m 701.743,714.973 14.73,0 0,14.73 -14.73,0 0,-14.73 z"
           style="fill:#ffffff;fill-opacity:1;fill-rule:nonzero;stroke:none"
           id="path78"
           inkscape:connector-curvature="0" /></g></g></g></svg>